<?xml version="1.0" standalone="no"?>
<!DOCTYPE svg PUBLIC "-//W3C//DTD SVG 20010904//EN"
 "http://www.w3.org/TR/2001/REC-SVG-20010904/DTD/svg10.dtd">
<svg version="1.0" xmlns="http://www.w3.org/2000/svg"
 width="50.000000pt" height="50.000000pt" viewBox="0 0 50.000000 50.000000"
 preserveAspectRatio="xMidYMid meet">

<g transform="translate(0.000000,50.000000) scale(0.100000,-0.100000)"
fill="#000000" stroke="none">
<path d="M166 455 c-179 -64 -175 -320 6 -381 203 -67 357 196 198 340 -59 53
-129 68 -204 41z m161 -46 c49 -30 76 -81 76 -144 0 -207 -295 -232 -338 -28
-3 17 -1 50 5 73 30 111 158 160 257 99z"/>
<path d="M220 325 l0 -45 -50 0 c-38 0 -50 -4 -50 -15 0 -11 12 -15 50 -15
l50 0 0 -45 c0 -33 4 -45 15 -45 11 0 15 12 15 45 l0 45 45 0 c33 0 45 4 45
15 0 11 -12 15 -45 15 l-45 0 0 45 c0 33 -4 45 -15 45 -11 0 -15 -12 -15 -45z"/>
</g>
</svg>
