<?xml version="1.0" standalone="no"?>
<!DOCTYPE svg PUBLIC "-//W3C//DTD SVG 20010904//EN"
 "http://www.w3.org/TR/2001/REC-SVG-20010904/DTD/svg10.dtd">
<svg version="1.0" xmlns="http://www.w3.org/2000/svg"
 width="50.000000pt" height="50.000000pt" viewBox="0 0 50.000000 50.000000"
 preserveAspectRatio="xMidYMid meet">

<g transform="translate(0.000000,50.000000) scale(0.100000,-0.100000)"
fill="#000000" stroke="none">
<path d="M178 459 c-10 -5 -18 -19 -18 -29 0 -17 -7 -20 -44 -20 -49 0 -68
-16 -43 -35 14 -10 17 -33 17 -144 0 -172 0 -171 143 -171 145 0 141 -5 145
166 3 111 7 140 19 149 26 19 5 35 -43 35 -37 0 -44 3 -44 20 0 10 -9 24 -19
30 -25 13 -91 13 -113 -1z m102 -54 c4 -24 11 -31 33 -33 l28 -3 -3 -137 -3
-137 -100 0 -100 0 -3 137 -3 137 28 3 c19 2 29 10 31 23 7 42 11 46 49 43 33
-3 39 -7 43 -33z"/>
<path d="M160 229 c0 -84 3 -110 13 -107 8 3 13 37 15 111 2 91 0 107 -13 107
-13 0 -15 -18 -15 -111z"/>
<path d="M220 230 c0 -91 3 -110 15 -110 12 0 15 19 15 110 0 91 -3 110 -15
110 -12 0 -15 -19 -15 -110z"/>
<path d="M282 233 c2 -74 7 -108 16 -111 9 -3 12 23 12 107 0 93 -2 111 -15
111 -13 0 -15 -16 -13 -107z"/>
</g>
</svg>
